<svg width="50" height="56" viewBox="0 0 50 56" fill="none" xmlns="http://www.w3.org/2000/svg">
<path d="M36.9318 0.251189C36.791 0.865214 35.2678 5.18199 34.1143 8.23351C32.0981 13.5644 30.3812 17.6206 27.9775 22.7003C26.2254 26.4124 25.1072 28.6545 25.0103 28.6545C24.9047 28.6545 21.3652 24.8308 20.0709 23.305C17.3238 20.086 14.973 17.0717 12.7366 13.9086C12.0146 12.8852 11.3895 12.0107 11.3455 11.9642C11.187 11.7874 12.4196 16.2996 13.3089 19.165C15.9855 27.7893 19.7891 36.4135 24.3235 44.126L25.0191 45.3262L25.5914 44.4982C33.5068 33.0643 37.6802 19.2115 37.3897 5.30294C37.3369 2.69798 37.1696 -2.70456e-06 37.0551 -2.70456e-06C37.0199 -2.70456e-06 36.9671 0.111638 36.9318 0.251189Z" fill="url(#paint0_linear_108_7151)"/>
<path d="M7.03115 11.2292C5.58718 12.8201 4.60987 14.1691 3.57091 15.9925C-1.97603 25.7611 -0.989908 38.116 6.03622 46.7868C11.6712 53.7457 20.3614 57.1136 28.9196 55.6715C34.7923 54.6854 40.1191 51.5408 43.9668 46.7868C51.8557 37.0554 52.023 22.8677 44.3806 12.8852C43.6234 11.8897 42.065 10.2151 41.9769 10.3082C41.8977 10.3919 41.2021 12.541 41.2021 12.6991C41.2021 12.7456 41.5103 13.1736 41.8889 13.6481C45.2522 17.8439 47.2421 22.9236 47.7176 28.5335C47.8936 30.6175 47.4094 34.0039 46.5377 36.767C46.212 37.7997 45.3403 40.0325 45.2875 39.986C45.2699 39.9674 44.0108 35.0552 42.4788 29.0731C39.3971 17.0066 39.6173 17.8346 39.5644 17.8811C39.5468 17.8997 38.5255 20.9978 37.2928 24.7563L35.0476 31.5943L36.7293 40.1442C37.8035 45.6425 38.3758 48.7405 38.323 48.8242C38.2789 48.8987 37.8123 49.2429 37.284 49.5964C33.859 51.8757 30.1082 53.1968 25.9876 53.5876C24.165 53.7643 21.2331 53.3271 18.6709 52.4991C17.5792 52.1548 15.739 51.3547 14.6384 50.7593C13.5554 50.1639 11.7945 49.0196 11.68 48.8242C11.6272 48.7405 12.1995 45.6425 13.2737 40.1442L14.9554 31.5943L12.7102 24.7563C11.4775 20.9978 10.4562 17.8997 10.4386 17.8811C10.3857 17.8346 10.6058 17.0066 7.52421 29.0731C5.9922 35.0552 4.73313 39.9674 4.71552 39.986C4.66269 40.0325 3.79103 37.7997 3.46526 36.767C2.59359 34.0039 2.10934 30.6175 2.28543 28.5335C2.76088 22.9236 4.75074 17.8439 8.11413 13.6481C8.49273 13.1736 8.80089 12.7456 8.80089 12.6991C8.80089 12.541 8.10532 10.3919 8.02608 10.3082C7.98206 10.2616 7.53302 10.6803 7.03115 11.2292Z" fill="white"/>
<defs>
<linearGradient id="paint0_linear_108_7151" x1="11.3316" y1="37.65" x2="36.4045" y2="37.65" gradientUnits="userSpaceOnUse">
<stop stop-color="#009E71"/>
<stop offset="1" stop-color="#00FFB6"/>
</linearGradient>
</defs>
</svg>
