<svg width="24" height="24" viewBox="0 0 24 24" fill="none" xmlns="http://www.w3.org/2000/svg">
<path d="M13.03 10.11H4.81L2.75 20.34H21.25L19.19 10.11H17.14M8.92 20.34L20.22 15.23M6.86 10.11L13.03 17.78" stroke="#30333E" stroke-width="1.5" stroke-linecap="round" stroke-linejoin="round"/>
<path d="M15.08 3.66016C13.38 3.66016 12 5.00016 12 6.64016C12 8.68016 14.76 11.6702 14.88 11.8002C14.99 11.9202 15.18 11.9202 15.29 11.8002C15.41 11.6702 18.17 8.68016 18.17 6.64016C18.17 5.00016 16.78 3.66016 15.08 3.66016Z" stroke="#9296A9" stroke-width="1.5" stroke-linecap="round" stroke-linejoin="round"/>
<path d="M15.08 7.7699C15.6654 7.7699 16.14 7.29533 16.14 6.7099C16.14 6.12448 15.6654 5.6499 15.08 5.6499C14.4946 5.6499 14.02 6.12448 14.02 6.7099C14.02 7.29533 14.4946 7.7699 15.08 7.7699Z" fill="#9296A9"/>
</svg>
