<svg width="16" height="18" viewBox="0 0 16 18" fill="none" xmlns="http://www.w3.org/2000/svg">
<path d="M8.00082 7.37813V16.3026M13.4772 16.3026H2.52437C1.62867 16.3026 0.901733 15.5757 0.901733 14.68V9.00077C0.901733 8.10507 1.62867 7.37813 2.52437 7.37813H13.4755C14.3712 7.37813 15.0982 8.10507 15.0982 9.00077V14.68C15.0982 15.5757 14.3712 16.3026 13.4772 16.3026ZM8.11374 7.37734C9.04676 7.37734 10.9745 7.07553 12.1995 5.80013C13.1017 4.86228 13.1017 3.34025 12.1995 2.40074C11.2974 1.46286 9.83536 1.46286 8.93318 2.40074C7.55231 3.8384 8.11374 7.37734 8.11374 7.37734ZM7.88902 7.37798C6.956 7.37798 5.02831 7.07616 3.8032 5.80077C2.90102 4.86289 2.90102 3.34086 3.8032 2.40135C4.70539 1.46184 6.1674 1.46346 7.06959 2.40135C8.45045 3.839 7.88902 7.37798 7.88902 7.37798Z" stroke="#FAFAFD" stroke-width="1.5" stroke-linecap="round" stroke-linejoin="round"/>
</svg>
