<svg width="18" height="18" viewBox="0 0 18 18" fill="none" xmlns="http://www.w3.org/2000/svg">
<path d="M7.60383 2.59776C7.95917 1.13408 10.0408 1.13408 10.3962 2.59776C10.6257 3.54327 11.7089 3.99198 12.5398 3.48571C13.8261 2.70199 15.298 4.17391 14.5143 5.46015C14.008 6.29104 14.4567 7.37433 15.4022 7.60383C16.8659 7.95917 16.8659 10.0408 15.4022 10.3962C14.4567 10.6257 14.008 11.7089 14.5143 12.5398C15.298 13.8261 13.8261 15.298 12.5398 14.5143C11.7089 14.008 10.6257 14.4567 10.3962 15.4022C10.0408 16.8659 7.95917 16.8659 7.60383 15.4022C7.37433 14.4567 6.29105 14.008 5.46016 14.5143C4.17391 15.298 2.70199 13.8261 3.48571 12.5398C3.99198 11.7089 3.54327 10.6257 2.59776 10.3962C1.13408 10.0408 1.13408 7.95917 2.59776 7.60383C3.54327 7.37433 3.99197 6.29105 3.48571 5.46015C2.70199 4.17391 4.17391 2.70199 5.46016 3.48571C6.29105 3.99197 7.37433 3.54327 7.60383 2.59776Z" stroke="#83879B" stroke-width="1.5" stroke-linecap="round" stroke-linejoin="round"/>
<path d="M11.5 9C11.5 10.3807 10.3807 11.5 9 11.5C7.61925 11.5 6.5 10.3807 6.5 9C6.5 7.61925 7.61925 6.5 9 6.5C10.3807 6.5 11.5 7.61925 11.5 9Z" stroke="#83879B" stroke-width="1.5" stroke-linecap="round" stroke-linejoin="round"/>
</svg>
